<svg xmlns="http://www.w3.org/2000/svg" viewBox="0 0 64 64" fill="none">
  <rect width="64" height="64" rx="16" fill="#15110E" />
  <path d="M34.945 10.457c-5.2 4.27-8.716 10.952-8.716 17.988 0 6.064 2.608 10.771 7.634 14.2 4.503 3.074 6.445 7.913 4.553 11.69-1.766 3.53-5.667 4.968-10.947 3.764 4.68-.524 7.306-3.504 7.306-7.363 0-4.084-2.644-6.495-7.515-9.525-7.133-4.437-10.475-9.881-10.475-17.073 0-8.926 4.936-15.567 18.16-23.68Z" fill="#EAD8B2"/>
  <path d="M38.886 16.188c7.932 3.765 12.329 9.541 12.329 16.946 0 11.12-8.715 19.624-21.04 20.968 6.916-2.58 11.56-8.59 11.56-15.985 0-5.848-2.612-12.739-2.85-21.929Z" fill="#F57C3D"/>
</svg>
